<?xml version="1.0" standalone="no"?>
<!DOCTYPE svg PUBLIC "-//W3C//DTD SVG 20010904//EN"
 "http://www.w3.org/TR/2001/REC-SVG-20010904/DTD/svg10.dtd">
<svg version="1.0" xmlns="http://www.w3.org/2000/svg"
 width="300.000000pt" height="279.000000pt" viewBox="0 0 300.000000 279.000000"
 preserveAspectRatio="xMidYMid meet">
<metadata>
Created by potrace 1.16, written by Peter Selinger 2001-2019
</metadata>
<g transform="translate(0.000000,279.000000) scale(0.100000,-0.100000)"
fill="#000000" stroke="none">
<path d="M2390 2530 l0 -140 -445 0 -445 0 0 -115 0 -115 680 0 680 0 0 115 0
115 -150 0 -150 0 0 140 0 140 -85 0 -85 0 0 -140z"/>
<path d="M1500 2067 c0 -14 287 -1836 296 -1880 l6 -27 381 2 381 3 148 930
c81 512 147 942 147 958 l1 27 -680 0 c-547 0 -680 -3 -680 -13z"/>
<path d="M655 1586 c-180 -30 -309 -89 -406 -186 -68 -68 -102 -126 -114 -197
l-7 -43 686 0 686 0 0 30 c0 65 -37 134 -113 207 -87 85 -181 135 -316 170
-119 30 -300 39 -416 19z"/>
<path d="M159 1054 c-22 -23 -24 -34 -24 -114 0 -80 2 -91 24 -114 l24 -26
631 0 630 0 28 27 c26 25 28 32 28 113 0 79 -2 90 -25 114 l-24 26 -634 0
-634 0 -24 -26z"/>
<path d="M134 678 c23 -151 186 -297 400 -358 422 -120 929 64 963 350 l6 50
-688 0 -688 0 7 -42z"/>
</g>
</svg>
