<?xml version="1.0" standalone="no"?>
<!DOCTYPE svg PUBLIC "-//W3C//DTD SVG 20010904//EN"
 "http://www.w3.org/TR/2001/REC-SVG-20010904/DTD/svg10.dtd">
<svg version="1.0" xmlns="http://www.w3.org/2000/svg"
 width="245.000000pt" height="300.000000pt" viewBox="0 0 245.000000 300.000000"
 preserveAspectRatio="xMidYMid meet">
<metadata>
Created by potrace 1.16, written by Peter Selinger 2001-2019
</metadata>
<g transform="translate(0.000000,300.000000) scale(0.100000,-0.100000)"
fill="#000000" stroke="none">
<path d="M402 2878 c-17 -17 -17 -549 0 -566 7 -7 24 -12 38 -12 56 0 602 89
616 101 11 9 14 48 14 189 0 158 -2 179 -18 193 -13 12 -103 30 -301 62 -306
49 -331 51 -349 33z"/>
<path d="M1681 2843 c-151 -24 -281 -49 -288 -55 -20 -16 -19 -371 2 -388 14
-12 550 -100 610 -100 17 0 36 5 43 12 17 17 17 549 0 566 -18 18 -70 13 -367
-35z"/>
<path d="M1132 2788 c-17 -17 -17 -369 0 -386 7 -7 44 -12 95 -12 71 0 84 3
93 19 6 11 10 91 10 189 0 205 2 202 -111 202 -45 0 -80 -5 -87 -12z"/>
<path d="M980 2333 c-109 -33 -320 -65 -461 -70 -165 -6 -261 9 -337 52 -23
13 -39 19 -35 12 4 -7 36 -56 71 -110 34 -54 65 -104 68 -111 3 -8 -36 -69
-86 -137 l-92 -124 53 -3 c78 -5 262 25 363 59 157 52 240 102 342 203 65 66
101 111 128 164 21 41 36 75 34 76 -1 2 -23 -3 -48 -11z"/>
<path d="M1435 2303 c29 -69 75 -130 158 -210 133 -127 306 -205 534 -238 61
-9 134 -15 162 -13 l53 3 -92 124 c-50 68 -89 129 -86 137 3 7 34 57 68 111
88 135 84 127 56 109 -127 -83 -400 -87 -743 -11 -60 14 -113 25 -118 25 -4 0
0 -17 8 -37z"/>
<path d="M1036 2192 c-140 -266 -427 -421 -848 -458 l-78 -6 0 -119 0 -119
505 0 505 0 0 385 0 385 -24 0 c-20 0 -31 -12 -60 -68z"/>
<path d="M1330 1875 l0 -385 485 0 485 0 0 125 0 125 -58 0 c-149 0 -352 54
-507 133 -134 70 -251 183 -313 305 -36 69 -47 82 -68 82 l-24 0 0 -385z"/>
<path d="M110 814 c0 -342 3 -488 12 -517 16 -52 97 -140 151 -163 38 -17 78
-19 445 -22 l402 -3 0 590 0 591 -505 0 -505 0 0 -476z"/>
<path d="M1330 699 l0 -590 383 3 c346 3 386 5 424 22 54 23 135 111 151 163
9 29 12 175 12 517 l0 476 -485 0 -485 0 0 -591z"/>
</g>
</svg>
