<?xml version="1.0" standalone="no"?>
<!DOCTYPE svg PUBLIC "-//W3C//DTD SVG 20010904//EN"
 "http://www.w3.org/TR/2001/REC-SVG-20010904/DTD/svg10.dtd">
<svg version="1.0" xmlns="http://www.w3.org/2000/svg"
 width="300.000000pt" height="224.000000pt" viewBox="0 0 300.000000 224.000000"
 preserveAspectRatio="xMidYMid meet">
<metadata>
Created by potrace 1.16, written by Peter Selinger 2001-2019
</metadata>
<g transform="translate(0.000000,224.000000) scale(0.100000,-0.100000)"
fill="#000000" stroke="none">
<path d="M1145 2114 c-99 -15 -192 -60 -261 -126 -111 -105 -149 -201 -141
-357 9 -201 81 -335 297 -552 143 -144 245 -227 388 -316 l72 -45 73 45 c142
89 244 172 387 316 216 217 288 351 297 552 8 156 -30 252 -141 357 -90 85
-194 126 -326 126 -67 0 -95 -4 -135 -22 -61 -28 -121 -85 -136 -129 -6 -18
-14 -33 -19 -33 -5 0 -13 15 -19 33 -15 44 -75 101 -133 127 -47 21 -146 32
-203 24z m-1 -349 c213 -32 308 -115 311 -270 2 -53 9 -84 28 -125 15 -30 27
-60 27 -67 0 -57 81 57 91 129 10 71 50 132 104 158 70 34 170 45 287 31 138
-17 137 -16 90 -65 -21 -22 -61 -72 -87 -111 -99 -142 -178 -187 -292 -166
-31 6 -61 15 -67 21 -6 6 18 36 65 82 71 71 160 128 256 163 65 23 8 16 -74
-10 -210 -66 -333 -197 -353 -376 -10 -85 -16 -102 -33 -96 -7 2 -10 35 -8 98
2 73 -3 109 -19 161 -40 130 -157 249 -325 333 -107 53 -142 59 -61 10 136
-82 228 -169 281 -267 34 -61 28 -68 -65 -68 -79 0 -149 30 -203 85 -21 22
-68 99 -106 174 -38 75 -79 145 -91 156 -20 18 -20 20 -3 26 31 13 143 10 247
-6z"/>
<path d="M248 1508 c-3 -13 -29 -107 -57 -210 -28 -103 -54 -216 -58 -251 -11
-126 43 -297 128 -400 40 -49 174 -157 242 -196 94 -54 236 -101 377 -127 169
-30 276 -62 409 -125 57 -27 109 -49 116 -49 18 0 26 89 14 160 -18 114 -60
195 -149 293 -46 51 -74 68 -244 153 -199 100 -261 140 -386 247 -41 36 -78
63 -82 60 -5 -2 -8 -30 -8 -62 0 -125 89 -242 300 -394 25 -17 25 -17 -30 -12
-129 13 -149 17 -154 31 -3 9 -1 12 4 9 14 -8 70 -25 70 -20 0 2 -24 16 -53
33 -136 77 -217 237 -217 429 0 35 7 109 15 164 23 154 -2 240 -74 254 -12 2
-26 7 -32 11 -16 9 -29 -15 -29 -56 l-1 -35 -14 40 c-23 65 -78 98 -87 53z"/>
<path d="M2701 1513 c-12 -10 -28 -36 -36 -58 l-14 -40 -1 35 c0 41 -13 65
-29 56 -6 -4 -20 -9 -32 -11 -72 -14 -97 -100 -74 -254 8 -55 15 -129 15 -164
0 -193 -81 -352 -218 -430 -58 -32 -63 -42 -14 -28 18 5 32 6 32 1 0 -8 -29
-13 -150 -25 -55 -5 -55 -5 -30 12 211 152 300 269 300 394 0 32 -3 60 -8 62
-4 3 -41 -24 -82 -60 -125 -107 -187 -147 -386 -247 -170 -85 -198 -102 -244
-153 -89 -98 -131 -179 -149 -293 -12 -71 -4 -160 14 -160 7 0 59 22 116 49
133 63 240 95 409 125 217 39 360 101 508 221 93 75 129 116 173 198 45 84 59
147 59 266 0 95 -5 121 -51 290 -29 102 -54 196 -57 209 -5 27 -22 28 -51 5z"/>
</g>
</svg>
