<?xml version="1.0" standalone="no"?>
<!DOCTYPE svg PUBLIC "-//W3C//DTD SVG 20010904//EN"
 "http://www.w3.org/TR/2001/REC-SVG-20010904/DTD/svg10.dtd">
<svg version="1.0" xmlns="http://www.w3.org/2000/svg"
 width="294.000000pt" height="300.000000pt" viewBox="0 0 294.000000 300.000000"
 preserveAspectRatio="xMidYMid meet">
<metadata>
Created by potrace 1.16, written by Peter Selinger 2001-2019
</metadata>
<g transform="translate(0.000000,300.000000) scale(0.100000,-0.100000)"
fill="#000000" stroke="none">
<path d="M819 2496 c-355 -204 -656 -378 -669 -387 l-24 -16 39 -66 c22 -37
42 -67 45 -67 3 0 287 161 632 359 l626 358 103 -60 c383 -221 1150 -657 1156
-657 9 0 74 120 73 135 0 8 -961 564 -1279 741 l-56 31 -646 -371z"/>
<path d="M2000 2742 l0 -128 112 -64 c62 -36 138 -80 170 -98 l58 -33 0 225 0
226 -170 0 -170 0 0 -128z"/>
<path d="M1018 2353 l-448 -257 0 -703 0 -703 105 0 105 0 0 570 0 570 280 0
280 0 0 -570 0 -570 510 0 510 0 0 704 0 704 -446 256 c-245 141 -446 256
-447 256 -1 0 -203 -116 -449 -257z m772 -623 l0 -100 -150 0 -150 0 0 100 0
100 150 0 150 0 0 -100z m370 0 l0 -100 -150 0 -150 0 0 100 0 100 150 0 150
0 0 -100z m-370 -280 l0 -100 -150 0 -150 0 0 100 0 100 150 0 150 0 0 -100z
m370 0 l0 -100 -150 0 -150 0 0 100 0 100 150 0 150 0 0 -100z"/>
<path d="M410 500 l0 -80 1050 0 1050 0 0 80 0 80 -1050 0 -1050 0 0 -80z"/>
<path d="M210 225 l0 -85 1260 0 1260 0 0 85 0 85 -1260 0 -1260 0 0 -85z"/>
</g>
</svg>
