<?xml version="1.0" standalone="no"?>
<!DOCTYPE svg PUBLIC "-//W3C//DTD SVG 20010904//EN"
 "http://www.w3.org/TR/2001/REC-SVG-20010904/DTD/svg10.dtd">
<svg version="1.0" xmlns="http://www.w3.org/2000/svg"
 width="300.000000pt" height="300.000000pt" viewBox="0 0 300.000000 300.000000"
 preserveAspectRatio="xMidYMid meet">
<metadata>
Created by potrace 1.16, written by Peter Selinger 2001-2019
</metadata>
<g transform="translate(0.000000,300.000000) scale(0.100000,-0.100000)"
fill="#000000" stroke="none">
<path d="M1747 2858 c-34 -26 -37 -66 -37 -449 l0 -379 -145 0 -145 0 0 301
c0 344 -2 354 -74 389 -41 19 -59 20 -499 20 -495 0 -497 0 -547 -55 l-25 -27
-3 -423 -3 -423 -27 -5 c-39 -8 -82 -45 -98 -83 -11 -27 -14 -163 -14 -748 0
-481 3 -724 11 -743 5 -15 22 -40 37 -56 l26 -27 503 0 503 0 31 28 c17 15 34
42 38 62 l7 35 729 5 c529 4 736 8 750 17 26 14 69 62 84 90 6 12 11 41 11 65
l0 43 -195 129 c-185 123 -193 129 -184 153 5 13 9 46 9 73 l0 49 164 3 c145
3 166 5 185 22 l21 19 0 948 0 948 -22 15 c-20 14 -89 16 -548 16 -406 0 -530
-3 -543 -12z m1057 -64 c3 -9 6 -135 6 -280 l0 -264 -515 0 -515 0 0 280 0
280 509 0 c455 0 510 -2 515 -16z m-1468 -147 l24 -28 0 -295 0 -294 -365 0
c-401 0 -413 -2 -454 -58 -14 -21 -24 -53 -28 -97 l-6 -65 -88 0 -89 0 0 403
c0 435 0 435 54 457 11 5 225 8 474 7 l454 -2 24 -28z m1474 -1056 c0 -324 -3
-596 -6 -605 -5 -14 -29 -16 -160 -16 l-153 0 -3 483 -3 482 -24 34 c-42 58
-58 61 -386 61 l-295 0 0 75 0 75 515 0 515 0 0 -589z m-431 364 c16 -8 31
-22 35 -30 3 -9 6 -270 6 -580 0 -504 -2 -563 -16 -569 -9 -3 -263 -6 -565 -6
l-549 0 0 40 0 40 530 0 530 0 0 520 0 520 -850 0 -850 0 0 -40 c0 -39 -1 -40
-35 -40 l-35 0 0 53 c0 55 10 76 45 95 14 8 275 11 873 12 729 0 857 -2 881
-15z m-69 -585 l0 -490 -509 0 -510 0 -3 418 c-3 464 -1 450 -71 492 -29 18
-52 20 -279 20 l-248 0 0 25 0 25 810 0 810 0 0 -490z m-1115 355 l25 -24 0
-724 c0 -699 -1 -726 -19 -748 l-19 -24 -465 -3 -465 -3 -29 25 -28 24 0 727
0 727 28 24 28 24 460 0 460 0 24 -25z m1383 -1120 l157 -105 -723 0 -722 0 0
105 0 105 565 0 565 0 158 -105z m222 -174 c0 -4 -9 -20 -21 -35 -46 -58 -16
-56 -784 -56 l-705 0 1 38 c0 20 3 31 6 24 13 -32 60 -42 209 -42 l147 0 36
39 36 40 538 0 c296 1 537 -3 537 -8z"/>
<path d="M1844 2745 c-19 -19 -23 -31 -18 -48 15 -48 0 -47 464 -47 411 0 438
1 453 18 24 27 21 58 -9 81 -26 20 -37 21 -446 21 l-419 0 -25 -25z m876 -34
c0 -10 -7 -22 -16 -25 -25 -10 -817 -7 -833 3 -8 5 -11 16 -8 25 6 14 51 16
432 16 410 0 425 -1 425 -19z"/>
<path d="M1842 2588 c-24 -31 -23 -57 2 -83 l25 -25 419 0 c409 0 420 1 446
21 30 24 34 59 8 82 -17 15 -63 17 -454 17 -336 0 -438 -3 -446 -12z m862 -24
c9 -3 16 -15 16 -25 0 -18 -15 -19 -425 -19 -381 0 -426 2 -432 16 -3 9 0 20
8 25 16 10 808 13 833 3z"/>
<path d="M435 2619 c-98 -57 -50 -205 59 -185 108 20 104 176 -5 192 -18 2
-43 -1 -54 -7z"/>
<path d="M1702 1517 c-180 -180 -210 -217 -179 -217 13 0 407 390 407 403 0
31 -61 -19 -228 -186z"/>
<path d="M1705 1380 c-159 -159 -197 -202 -187 -212 10 -10 53 28 212 187 110
110 199 204 197 209 -2 5 -8 11 -13 13 -5 2 -99 -87 -209 -197z"/>
<path d="M240 1070 l0 -600 470 0 470 0 0 600 0 600 -470 0 -470 0 0 -600z
m900 0 l0 -570 -430 0 -430 0 0 570 0 570 430 0 430 0 0 -570z"/>
<path d="M654 396 c-59 -50 -22 -146 56 -146 50 0 80 33 80 87 0 33 -6 46 -26
62 -35 28 -76 27 -110 -3z"/>
</g>
</svg>
