<?xml version="1.0" standalone="no"?>
<!DOCTYPE svg PUBLIC "-//W3C//DTD SVG 20010904//EN"
 "http://www.w3.org/TR/2001/REC-SVG-20010904/DTD/svg10.dtd">
<svg version="1.0" xmlns="http://www.w3.org/2000/svg"
 width="512.000000pt" height="512.000000pt" viewBox="0 0 512.000000 512.000000"
 preserveAspectRatio="xMidYMid meet">

<g transform="translate(0.000000,512.000000) scale(0.100000,-0.100000)"
fill="#000000" stroke="none">
<path d="M655 5114 c-11 -2 -45 -9 -75 -15 -217 -44 -429 -224 -522 -444 -56
-133 -53 -12 -53 -2095 0 -2083 -3 -1962 53 -2095 93 -219 290 -387 522 -446
82 -21 3878 -21 3960 0 274 70 491 287 561 561 21 82 21 3878 0 3960 -59 230
-227 429 -441 520 -140 59 19 54 -2070 56 -1053 1 -1924 0 -1935 -2z m3496
-604 c235 -45 399 -275 361 -506 -32 -196 -180 -344 -376 -376 -289 -48 -556
219 -508 508 42 252 277 420 523 374z m-1401 -605 c296 -40 556 -170 771 -384
397 -397 506 -972 283 -1491 -129 -300 -394 -565 -694 -694 -427 -184 -901
-143 -1285 111 -133 88 -290 245 -378 378 -299 453 -299 1037 0 1490 88 133
245 290 378 378 277 182 599 256 925 212z"/>
<path d="M3998 4199 c-43 -22 -78 -81 -78 -129 0 -50 35 -107 80 -130 21 -11
53 -20 70 -20 50 0 107 35 130 80 11 21 20 53 20 70 0 50 -35 107 -80 130 -49
25 -94 25 -142 -1z"/>
<path d="M2400 3605 c-404 -71 -725 -358 -838 -750 -160 -552 165 -1132 723
-1293 552 -160 1132 165 1293 723 175 606 -232 1230 -865 1324 -93 14 -219 12
-313 -4z"/>
</g>
</svg>
