<?xml version="1.0" standalone="no"?>
<!DOCTYPE svg PUBLIC "-//W3C//DTD SVG 20010904//EN"
 "http://www.w3.org/TR/2001/REC-SVG-20010904/DTD/svg10.dtd">
<svg version="1.0" xmlns="http://www.w3.org/2000/svg"
 width="293.000000pt" height="300.000000pt" viewBox="0 0 293.000000 300.000000"
 preserveAspectRatio="xMidYMid meet">
<metadata>
Created by potrace 1.16, written by Peter Selinger 2001-2019
</metadata>
<g transform="translate(0.000000,300.000000) scale(0.100000,-0.100000)"
fill="#000000" stroke="none">
<path d="M1448 2847 c-110 -38 -133 -70 -144 -204 -6 -68 -4 -81 12 -97 14
-15 27 -17 71 -12 l53 6 0 -30 c0 -24 -6 -32 -33 -43 -46 -20 -88 -72 -142
-177 -83 -160 -141 -178 -249 -79 -43 39 -61 64 -77 110 -12 33 -31 68 -43 77
-14 11 -20 26 -18 41 4 24 3 24 -34 -8 -20 -18 -50 -38 -66 -43 -26 -9 -28
-13 -22 -47 4 -20 11 -46 15 -59 21 -56 14 -67 -76 -107 -86 -38 -145 -88
-145 -123 0 -26 35 -87 51 -88 8 -1 22 -2 31 -3 10 -1 22 -19 33 -51 11 -32
28 -59 46 -72 49 -37 39 -61 -37 -94 -84 -36 -126 -82 -229 -255 -149 -251
-198 -314 -283 -365 -55 -32 -34 -54 51 -54 l37 0 0 -49 c0 -42 3 -49 23 -55
37 -10 60 -7 79 11 17 15 19 14 29 -16 14 -39 29 -47 121 -66 40 -8 94 -23
119 -31 l45 -17 99 42 98 42 28 -20 c23 -17 43 -21 114 -21 l86 0 -6 55 c-4
30 -5 55 -2 55 3 0 16 -28 29 -62 l23 -63 12 70 c15 87 17 432 2 545 -5 46
-19 106 -31 132 -25 58 -92 120 -155 144 l-45 18 7 40 c4 23 9 57 11 76 10 69
14 82 29 76 24 -9 48 50 42 101 -6 56 -27 79 -105 115 -51 23 -66 36 -78 64
-8 20 -14 49 -12 66 l3 30 35 -24 c19 -13 65 -66 102 -118 69 -96 159 -190
183 -190 12 0 31 13 144 94 22 15 47 26 55 23 26 -10 47 -54 53 -109 l5 -53
-35 -13 c-19 -7 -53 -32 -75 -56 -48 -52 -62 -106 -62 -236 0 -159 67 -615 92
-631 7 -5 24 -9 38 -9 23 0 27 -7 48 -83 36 -135 50 -210 87 -467 35 -248 60
-354 76 -329 13 22 11 121 -11 424 -18 258 -30 381 -46 476 -5 31 -3 38 14 43
22 7 43 56 69 161 14 56 17 116 18 295 0 206 -2 231 -23 296 -12 39 -22 84
-22 100 0 22 88 225 104 242 2 2 54 -22 115 -52 l110 -56 36 78 c20 42 47 104
60 138 61 162 84 177 134 89 17 -30 31 -57 31 -60 0 -2 -22 -16 -49 -30 -66
-33 -95 -74 -124 -175 -39 -138 -40 -145 -11 -180 43 -51 58 -54 94 -20 27 25
32 27 37 12 3 -9 23 -35 45 -58 l38 -40 -55 -18 c-43 -13 -72 -32 -121 -79
-59 -57 -70 -75 -145 -237 -151 -325 -289 -631 -289 -641 0 -29 112 -38 200
-15 30 8 58 12 62 10 5 -3 8 -25 8 -50 0 -58 21 -97 71 -134 71 -51 155 -49
205 5 30 32 47 31 137 -5 42 -16 91 -30 111 -30 36 0 36 0 36 44 l0 45 35 -15
c39 -16 76 -18 90 -5 6 5 27 14 48 21 36 11 37 13 37 61 0 27 3 49 6 49 3 0
17 -9 31 -20 45 -35 122 -16 106 26 -4 10 2 17 16 21 25 6 24 -3 11 244 -19
333 -53 505 -126 629 -19 33 -51 72 -71 87 -34 26 -42 28 -119 25 l-82 -2 -17
36 c-14 31 -16 52 -9 152 5 65 10 105 12 90 4 -33 36 -58 74 -58 28 0 28 0 28
69 l0 69 -46 40 c-52 47 -118 72 -186 72 -44 0 -49 3 -64 33 -32 62 -77 116
-105 126 -35 12 -37 26 -6 36 19 6 20 8 4 12 -56 15 -88 -21 -106 -119 -11
-64 -37 -120 -76 -167 -30 -35 -72 -42 -82 -13 -3 9 -27 46 -53 82 -26 36 -59
86 -73 112 -20 34 -35 48 -57 53 -69 15 -80 85 -36 226 28 95 32 139 14 157
-18 18 -76 14 -150 -11z"/>
</g>
</svg>
