<?xml version="1.0" standalone="no"?>
<!DOCTYPE svg PUBLIC "-//W3C//DTD SVG 20010904//EN"
 "http://www.w3.org/TR/2001/REC-SVG-20010904/DTD/svg10.dtd">
<svg version="1.0" xmlns="http://www.w3.org/2000/svg"
 width="300.000000pt" height="300.000000pt" viewBox="0 0 300.000000 300.000000"
 preserveAspectRatio="xMidYMid meet">
<metadata>
Created by potrace 1.16, written by Peter Selinger 2001-2019
</metadata>
<g transform="translate(0.000000,300.000000) scale(0.100000,-0.100000)"
fill="#000000" stroke="none">
<path d="M176 2748 c-3 -18 -15 -117 -26 -220 -21 -187 -21 -188 -1 -230 10
-24 71 -108 135 -188 l115 -145 1 -297 0 -298 255 0 255 0 0 318 0 319 105
143 c58 78 108 153 111 166 6 23 -13 435 -21 442 -2 2 -17 1 -33 -3 -35 -7
-42 -33 -42 -155 0 -41 -3 -113 -7 -159 l-6 -83 -116 -99 -116 -99 -151 0
-152 0 -115 93 -116 92 0 218 -1 217 -35 0 c-31 0 -35 -3 -39 -32z"/>
<path d="M2749 2563 l0 -218 -116 -92 -115 -93 -185 0 c-197 0 -225 -6 -255
-52 -27 -42 -149 -411 -146 -443 3 -28 6 -30 43 -29 42 1 275 100 275 117 0 5
-8 19 -18 31 -13 17 -23 21 -37 16 -11 -5 -44 -17 -73 -29 -30 -12 -52 -17
-50 -11 5 15 140 71 156 65 22 -8 38 42 24 78 -15 38 1 68 48 87 28 11 34 11
58 -7 39 -29 49 -69 24 -102 -17 -24 -18 -30 -7 -52 8 -14 10 -30 7 -36 -12
-20 -82 -63 -101 -63 -11 0 -58 -18 -105 -40 l-86 -39 0 -141 0 -140 255 0
255 0 0 298 1 297 115 145 c63 80 122 157 130 172 18 35 18 123 -1 296 -24
214 -20 202 -60 202 l-35 0 -1 -217z"/>
<path d="M537 2743 c-3 -15 -9 -88 -13 -162 -6 -127 -5 -133 12 -128 100 29
194 59 194 61 0 1 -42 60 -94 130 -88 120 -94 126 -99 99z"/>
<path d="M2370 2653 c-47 -64 -88 -122 -93 -129 -7 -12 22 -23 186 -71 18 -5
19 2 12 139 -4 78 -10 151 -14 160 -4 12 -28 -14 -91 -99z"/>
<path d="M625 2462 c-127 -36 -130 -38 -152 -77 -13 -22 -31 -64 -40 -94 l-17
-54 34 -28 c26 -22 45 -29 77 -29 52 0 54 11 18 89 -22 47 -24 59 -14 88 13
41 41 57 86 50 30 -5 39 -1 72 32 l38 38 47 -24 c28 -14 45 -19 41 -11 -12 20
-48 58 -54 57 -3 0 -64 -17 -136 -37z"/>
<path d="M2213 2478 c-38 -43 -35 -50 12 -26 l47 24 37 -37 c34 -34 41 -37 78
-32 77 10 105 -56 63 -148 -31 -68 -27 -79 23 -79 32 0 51 7 77 29 l34 28 -13
44 c-7 24 -24 65 -37 91 -23 46 -25 47 -111 73 -49 14 -108 33 -132 41 -56 18
-54 18 -78 -8z"/>
<path d="M714 2435 c-3 -8 -22 -24 -41 -36 -28 -17 -39 -19 -58 -11 -17 8 -28
7 -43 -4 -30 -21 -35 -58 -13 -107 11 -23 23 -55 26 -70 7 -26 10 -27 67 -27
61 0 67 2 128 60 42 39 57 86 46 143 -5 26 -14 35 -49 50 -51 21 -56 21 -63 2z"/>
<path d="M2218 2432 c-30 -13 -39 -24 -44 -49 -11 -57 4 -104 46 -143 61 -58
67 -60 129 -60 59 0 59 0 66 32 4 18 16 49 27 69 33 63 -4 131 -58 107 -20 -9
-30 -7 -64 16 -22 14 -40 31 -40 36 0 14 -18 11 -62 -8z"/>
<path d="M1549 1973 l-47 -4 -4 -56 c-3 -38 -10 -58 -21 -65 -21 -11 -22 -57
-2 -64 26 -10 43 15 51 72 6 48 9 54 29 54 13 0 30 3 39 6 25 10 20 -34 -6
-55 -23 -19 -20 -47 8 -58 27 -10 41 19 48 100 l7 77 -28 -2 c-15 -1 -49 -3
-74 -5z"/>
<path d="M2285 1956 c-22 -20 -25 -28 -16 -45 17 -31 13 -63 -10 -87 -21 -22
-21 -23 -3 -48 18 -23 54 -36 54 -18 0 4 14 15 31 24 l30 18 -17 30 c-18 29
-17 30 4 53 24 25 22 47 -6 80 -20 23 -36 22 -67 -7z"/>
<path d="M1286 1564 c-3 -9 -6 -29 -6 -45 0 -18 -7 -33 -20 -41 -11 -7 -20
-23 -20 -35 0 -34 48 -32 55 2 3 14 7 36 10 50 5 21 11 25 40 25 40 0 48 -22
15 -40 -24 -13 -26 -45 -4 -54 27 -10 41 11 49 71 4 31 9 62 12 70 4 10 -10
13 -60 13 -50 0 -66 -4 -71 -16z"/>
<path d="M410 1328 c1 -13 20 -149 44 -303 l44 -280 -100 -269 c-54 -148 -97
-270 -96 -271 10 -9 84 -35 100 -35 31 0 33 29 4 59 l-28 29 127 223 126 224
18 250 c10 137 20 243 24 235 14 -36 78 -509 103 -762 l28 -278 58 0 c49 0 58
3 58 18 0 11 -14 25 -35 35 l-35 17 6 72 c4 59 54 1027 54 1051 0 4 -112 7
-250 7 l-250 0 0 -22z"/>
<path d="M2090 1343 c0 -24 50 -992 54 -1051 l6 -72 -35 -17 c-21 -10 -35 -24
-35 -35 0 -15 9 -18 58 -18 l58 0 27 273 c23 234 96 752 104 743 2 -1 25 -200
53 -442 27 -241 51 -453 54 -471 4 -28 0 -34 -30 -52 -55 -32 -45 -51 26 -51
33 0 60 4 60 9 0 16 99 1105 104 1149 l6 42 -255 0 c-140 0 -255 -3 -255 -7z"/>
<path d="M1194 1330 c-55 -22 -54 -11 -54 -581 0 -290 3 -535 6 -544 4 -8 20
-23 37 -32 47 -24 587 -24 634 0 17 9 33 24 37 32 3 9 6 255 6 545 l0 529 -24
28 -24 28 -299 2 c-164 1 -308 -2 -319 -7z m223 -225 c34 -39 31 -98 -6 -136
-82 -81 -213 19 -157 120 32 57 121 66 163 16z m292 21 c48 -25 63 -83 36
-137 -46 -87 -185 -51 -185 48 0 82 75 127 149 89z m-108 -379 c63 -34 100
-93 106 -170 4 -54 1 -69 -24 -117 -75 -143 -282 -147 -364 -6 -26 45 -30 59
-27 116 3 52 9 74 33 109 59 88 181 118 276 68z"/>
<path d="M1419 687 c-47 -31 -71 -81 -66 -138 10 -113 123 -172 221 -116 132
75 78 277 -74 277 -32 0 -58 -7 -81 -23z"/>
</g>
</svg>
