<?xml version="1.0" standalone="no"?>
<!DOCTYPE svg PUBLIC "-//W3C//DTD SVG 20010904//EN"
 "http://www.w3.org/TR/2001/REC-SVG-20010904/DTD/svg10.dtd">
<svg version="1.0" xmlns="http://www.w3.org/2000/svg"
 width="225.000000pt" height="300.000000pt" viewBox="0 0 225.000000 300.000000"
 preserveAspectRatio="xMidYMid meet">
<metadata>
Created by potrace 1.16, written by Peter Selinger 2001-2019
</metadata>
<g transform="translate(0.000000,300.000000) scale(0.100000,-0.100000)"
fill="#000000" stroke="none">
<path d="M953 2880 c-124 -33 -263 -101 -313 -155 -43 -46 -71 -55 -178 -55
-135 0 -190 -18 -260 -83 -30 -29 -64 -70 -76 -92 -21 -40 -21 -41 -21 -850 0
-809 0 -810 21 -850 12 -22 46 -63 76 -92 63 -59 127 -83 220 -83 l58 0 -116
-174 c-129 -193 -141 -226 -104 -284 21 -33 72 -62 110 -62 41 0 78 30 126
104 l49 76 580 0 580 0 52 -80 c44 -66 59 -81 90 -90 81 -24 159 32 157 114
-1 36 -17 67 -117 219 l-116 177 58 0 c89 0 152 23 213 79 29 27 64 71 78 97
l25 49 3 779 c3 909 8 853 -91 952 -75 75 -127 94 -259 94 -91 0 -130 11 -159
46 -26 32 -130 93 -212 125 -158 61 -335 75 -474 39z m724 -506 c48 -36 52
-64 52 -389 0 -325 -4 -353 -52 -389 -28 -21 -36 -21 -545 -21 -559 0 -566 1
-593 53 -18 35 -26 620 -10 679 27 95 11 93 613 90 497 -2 507 -2 535 -23z
m-931 -1120 c73 -49 70 -170 -6 -209 -57 -29 -130 -12 -164 39 -9 14 -16 45
-16 72 0 39 5 51 34 80 29 29 41 34 80 34 27 0 58 -7 72 -16z m901 -1 c27 -18
53 -68 53 -104 0 -61 -58 -119 -120 -119 -71 0 -120 51 -120 126 0 39 5 51 34
80 29 29 41 34 80 34 27 0 58 -7 73 -17z m-137 -677 c16 -25 30 -47 30 -50 0
-3 -187 -6 -415 -6 -228 0 -415 3 -415 6 0 3 14 25 30 50 l31 44 354 0 354 0
31 -44z"/>
<path d="M750 1985 l0 -185 375 0 375 0 0 185 0 185 -375 0 -375 0 0 -185z"/>
</g>
</svg>
